<?xml version="1.0" standalone="no"?>
<!DOCTYPE svg PUBLIC "-//W3C//DTD SVG 20010904//EN"
 "http://www.w3.org/TR/2001/REC-SVG-20010904/DTD/svg10.dtd">
<svg version="1.0" xmlns="http://www.w3.org/2000/svg"
 width="441.000000pt" height="441.000000pt" viewBox="0 0 441.000000 441.000000"
 preserveAspectRatio="xMidYMid meet">
<metadata>
Created by potrace 1.14, written by Peter Selinger 2001-2017
</metadata>
<g transform="translate(0.000000,441.000000) scale(0.100000,-0.100000)"
fill="#000000" stroke="none">
<path d="M1945 4395 c-558 -66 -1065 -342 -1436 -781 -272 -322 -456 -760
-500 -1189 -14 -143 -7 -403 16 -555 70 -462 296 -904 633 -1236 178 -176 400
-330 614 -428 l78 -35 0 109 0 110 -25 0 -25 0 0 115 0 115 25 0 25 0 0 260 0
260 -30 0 c-30 0 -30 1 -30 54 0 52 -1 55 -27 58 l-28 3 -3 228 -2 227 -25 0
-25 0 0 -230 0 -230 -30 0 -30 0 0 -140 0 -140 -55 0 c-54 0 -55 0 -55 30 l0
30 -85 0 c-84 0 -85 0 -85 25 0 21 -5 25 -30 25 l-30 0 0 145 0 145 30 0 30 0
0 370 0 370 25 0 25 0 0 145 0 145 115 0 115 0 0 -30 c0 -27 3 -30 30 -30 l30
0 0 -85 0 -85 30 0 30 0 0 -85 c0 -84 0 -85 25 -85 25 0 25 1 25 85 l0 85 30
0 c27 0 30 3 30 30 l0 30 60 0 60 0 0 30 0 31 113 -3 112 -3 3 -27 c3 -22 9
-28 28 -28 20 0 24 -5 24 -30 0 -27 3 -30 30 -30 25 0 30 -4 30 -25 0 -21 5
-25 30 -25 l30 0 0 -60 c0 -57 1 -60 25 -60 24 0 25 -3 25 -55 l0 -54 -142 -3
-143 -3 -3 -27 c-3 -22 -9 -28 -28 -28 -20 0 -24 -5 -24 -30 0 -27 -3 -30 -30
-30 -25 0 -30 -4 -30 -24 0 -19 -6 -25 -27 -28 -22 -2 -29 -9 -31 -31 -3 -21
-9 -27 -28 -27 l-24 0 0 -145 0 -145 30 0 30 0 0 85 c0 83 0 85 24 85 19 0 25
6 28 28 2 21 9 28 31 30 21 3 27 9 27 28 0 20 5 24 30 24 27 0 30 3 30 30 0
27 3 30 30 30 27 0 30 3 30 30 0 30 1 30 55 30 52 0 55 1 55 25 0 21 5 25 30
25 25 0 30 -4 30 -25 0 -24 3 -25 54 -25 52 0 55 -1 58 -28 2 -21 9 -28 31
-30 l27 -3 0 -85 0 -84 30 0 30 0 0 -60 0 -60 85 0 85 0 0 -85 0 -85 -30 0
-30 0 0 -170 0 -170 -139 0 -140 0 -3 28 c-3 26 -6 27 -60 30 -57 3 -58 4 -58
32 0 27 -3 30 -30 30 -25 0 -30 4 -30 25 0 20 -5 25 -25 25 -24 0 -25 3 -25
61 l0 60 -32 -3 -33 -3 0 -85 0 -85 33 -3 c32 -3 32 -4 32 -58 0 -51 1 -54 25
-54 25 0 25 -1 25 -85 0 -84 0 -85 -25 -85 -21 0 -25 -5 -25 -30 0 -25 4 -30
25 -30 24 0 25 -3 25 -60 l0 -60 115 0 114 0 3 -112 3 -113 28 -3 c27 -3 27
-3 27 57 l0 61 30 0 c30 0 30 1 30 55 0 52 1 55 25 55 21 0 25 5 25 30 l0 30
84 0 85 0 3 -27 c2 -22 9 -29 31 -31 21 -3 27 -9 27 -28 0 -20 5 -24 30 -24
l30 0 0 -175 0 -175 -25 0 c-24 0 -25 -3 -25 -55 l0 -55 -90 0 -90 0 0 -26 0
-27 98 7 c469 34 875 182 1242 454 104 78 332 308 416 422 329 445 482 973
435 1500 -50 550 -281 1038 -672 1415 -118 114 -174 159 -324 258 -282 185
-611 304 -955 343 -151 17 -355 16 -505 -1z m377 -472 c3 -28 3 -28 91 -31
l87 -3 0 -29 c0 -30 1 -30 54 -30 l55 0 3 -52 c3 -49 5 -53 31 -56 23 -3 27
-8 27 -33 0 -29 -1 -29 -55 -29 -54 0 -55 0 -55 30 l0 30 -175 0 -175 0 0 -30
0 -30 -85 0 c-84 0 -85 0 -85 -25 0 -22 -4 -24 -57 -27 -55 -3 -58 -4 -61 -30
-3 -22 -9 -28 -28 -28 -20 0 -24 -5 -24 -30 0 -27 -3 -30 -30 -30 -30 0 -30
-1 -30 -55 0 -54 0 -55 -30 -55 l-30 0 0 -60 c0 -57 -1 -60 -25 -60 l-25 0 0
-225 0 -225 25 0 c25 0 25 -1 25 -90 l0 -90 30 0 c30 0 30 -1 30 -55 0 -54 0
-55 30 -55 27 0 30 -3 30 -30 0 -25 4 -30 25 -30 21 0 25 -5 25 -30 l0 -31 88
3 87 3 3 58 c3 53 5 57 27 57 24 0 25 3 25 55 0 54 0 55 30 55 25 0 30 -4 30
-25 0 -22 4 -24 58 -27 54 -3 57 -4 60 -30 3 -27 6 -28 58 -28 l54 0 0 55 0
55 60 0 c57 0 60 -1 60 -25 0 -24 3 -25 55 -25 52 0 55 1 55 25 0 21 5 25 30
25 27 0 30 3 30 30 0 25 4 30 25 30 22 0 24 4 27 58 3 54 4 57 31 60 l27 3 0
140 0 139 30 0 30 0 0 109 0 110 -27 3 c-28 3 -28 3 -31 91 l-3 87 31 0 30 0
0 -84 0 -85 28 -3 27 -3 3 -197 2 -198 -30 0 -30 0 0 -85 0 -85 -30 0 -30 0 0
-60 0 -60 -30 0 c-25 0 -30 -4 -30 -25 0 -20 -5 -25 -25 -25 -21 0 -25 -5 -25
-30 0 -27 -3 -30 -30 -30 -27 0 -30 -3 -30 -30 0 -27 -3 -30 -30 -30 -27 0
-30 -3 -30 -30 l0 -30 -85 0 -85 0 0 -30 0 -30 -260 0 -260 0 0 -25 c0 -20 -5
-25 -25 -25 -20 0 -25 5 -25 25 0 21 -5 25 -30 25 -27 0 -30 3 -30 30 l0 30
-115 0 -115 0 0 30 0 30 -115 0 -115 0 0 30 c0 27 3 30 30 30 25 0 30 4 30 25
0 21 5 25 30 25 l30 0 0 60 0 60 -30 0 c-27 0 -30 3 -30 30 0 27 -3 30 -30 30
-30 0 -30 1 -30 55 0 54 0 55 30 55 27 0 30 3 30 30 l0 30 -60 0 -60 0 0 30
c0 25 -4 30 -25 30 l-25 0 0 115 0 115 30 0 c25 0 30 4 30 25 0 24 3 25 55 25
52 0 55 -1 55 -25 0 -21 5 -25 30 -25 l30 0 0 110 0 110 -30 0 c-30 0 -30 -1
-30 -55 l0 -55 -55 0 c-54 0 -55 0 -55 30 0 25 4 30 25 30 25 0 25 1 25 85 l0
85 30 0 c30 0 30 1 30 55 0 54 0 55 30 55 27 0 30 3 30 30 0 25 4 30 25 30 21
0 25 -5 25 -30 0 -27 3 -30 30 -30 l30 0 0 60 0 60 30 0 c25 0 30 4 30 25 0
21 5 25 30 25 27 0 30 3 30 30 l0 30 85 0 85 0 0 30 0 30 224 0 225 0 3 -27z
m408 -948 l0 -55 -60 0 -60 0 0 55 0 55 60 0 60 0 0 -55z m-1495 -115 c0 -53
-1 -55 -27 -58 l-28 -3 0 -140 0 -139 -30 0 c-27 0 -30 -3 -30 -30 0 -25 -4
-30 -25 -30 l-25 0 0 169 c0 168 0 170 23 173 16 2 23 11 25 31 3 23 8 27 33
27 26 0 29 3 29 31 0 27 3 30 28 27 26 -3 27 -5 27 -58z m975 -715 c0 -21 5
-25 30 -25 l30 0 0 -114 0 -115 28 -3 27 -3 3 -172 2 -173 -30 0 c-27 0 -30
-3 -30 -30 0 -27 -3 -30 -30 -30 -27 0 -30 3 -30 30 0 27 -3 30 -30 30 l-30 0
0 115 0 115 -25 0 -25 0 0 175 0 175 25 0 c20 0 25 5 25 25 0 21 5 25 30 25
25 0 30 -4 30 -25z m460 -575 c0 -27 -3 -30 -30 -30 -27 0 -30 3 -30 30 0 27
3 30 30 30 27 0 30 -3 30 -30z m170 -230 c0 -27 -3 -30 -30 -30 l-30 0 2 -172
3 -173 28 -3 c21 -3 27 -9 27 -28 0 -19 -5 -24 -24 -24 -19 0 -25 -6 -28 -27
l-3 -28 -227 -3 -228 -2 0 30 c0 27 -3 30 -30 30 l-30 0 0 169 0 170 28 3 c26
3 27 6 30 61 l3 57 254 0 255 0 0 -30z"/>
<path d="M1470 3545 l0 -115 25 0 25 0 0 115 0 115 -25 0 -25 0 0 -115z"/>
<path d="M1470 3095 l0 -115 25 0 25 0 0 115 0 115 -25 0 -25 0 0 -115z"/>
<path d="M1410 2951 c0 -28 3 -31 31 -31 27 0 30 3 27 28 -2 21 -9 28 -30 30
-25 3 -28 0 -28 -27z"/>
<path d="M2440 1025 l0 -115 115 0 115 0 0 85 0 85 -30 0 c-30 0 -30 -1 -30
-54 l0 -53 -37 -7 c-76 -12 -73 -16 -73 84 l0 90 -30 0 -30 0 0 -115z"/>
<path d="M890 1710 l0 -290 60 0 60 0 0 145 0 145 -30 0 -30 0 0 60 0 60 30 0
30 0 0 85 0 85 -60 0 -60 0 0 -290z"/>
</g>
</svg>
